<svg xmlns="http://www.w3.org/2000/svg" width="31.6" height="31.6" viewBox="0 0 31.6 31.6">
  <g id="Quis" transform="translate(-2 -2)">
    <path id="Path_51487" data-name="Path 51487" d="M17.8,5.16a1.794,1.794,0,0,1,1.264.474l.316.316a7.757,7.757,0,0,0,5.688,2.37h.474a1.753,1.753,0,0,1,1.738,1.738v.474a7.757,7.757,0,0,0,2.37,5.688l.316.316a1.922,1.922,0,0,1,0,2.528l-.316.316a7.757,7.757,0,0,0-2.37,5.688v.474a1.753,1.753,0,0,1-1.738,1.738h-.474a7.757,7.757,0,0,0-5.688,2.37l-.316.316a1.922,1.922,0,0,1-2.528,0l-.316-.316a7.757,7.757,0,0,0-5.688-2.37h-.474A1.753,1.753,0,0,1,8.32,25.542v-.474A7.757,7.757,0,0,0,5.95,19.38l-.316-.316a1.922,1.922,0,0,1,0-2.528l.316-.316a7.757,7.757,0,0,0,2.37-5.688v-.474A1.753,1.753,0,0,1,10.058,8.32h.474A7.757,7.757,0,0,0,16.22,5.95l.316-.316A1.794,1.794,0,0,1,17.8,5.16M17.8,2a4.9,4.9,0,0,0-3.476,1.422l-.316.316A4.9,4.9,0,0,1,10.532,5.16h-.474a4.923,4.923,0,0,0-4.9,4.9v.474a4.9,4.9,0,0,1-1.422,3.476l-.316.316a4.959,4.959,0,0,0,0,6.952l.316.316A4.9,4.9,0,0,1,5.16,25.068v.474a4.923,4.923,0,0,0,4.9,4.9h.474a4.9,4.9,0,0,1,3.476,1.422l.316.316a4.959,4.959,0,0,0,6.952,0l.316-.316a4.9,4.9,0,0,1,3.476-1.422h.474a4.923,4.923,0,0,0,4.9-4.9v-.474a4.9,4.9,0,0,1,1.422-3.476l.316-.316a4.959,4.959,0,0,0,0-6.952l-.316-.316a4.9,4.9,0,0,1-1.422-3.476v-.474a4.923,4.923,0,0,0-4.9-4.9h-.474a4.9,4.9,0,0,1-3.476-1.422l-.316-.316A4.9,4.9,0,0,0,17.8,2Z" transform="translate(0)" fill="#1d1d1b"/>
    <path id="Path_51488" data-name="Path 51488" d="M10,12.108V11a2.952,2.952,0,0,1,2.686-3h1.422a2.75,2.75,0,0,1,2.686,3h0A2.617,2.617,0,0,1,16,12.9L14.266,14a2.992,2.992,0,0,0-1.422,2.528v.948" transform="translate(4.64 3.48)" fill="none" stroke="#1d1d1b" stroke-linecap="round" stroke-miterlimit="10" stroke-width="2"/>
    <path id="Path_51489" data-name="Path 51489" d="M12.58,19.16h0A1.493,1.493,0,0,1,11,17.58h0A1.493,1.493,0,0,1,12.58,16h0a1.493,1.493,0,0,1,1.58,1.58h0A1.493,1.493,0,0,1,12.58,19.16Z" transform="translate(5.22 8.12)" fill="#1d1d1b" stroke="#1d1d1b" stroke-miterlimit="10" stroke-width="0"/>
  </g>
</svg>
