<svg width="48" height="41" viewBox="0 0 48 41" fill="none" xmlns="//www.w3.org/2000/svg">
<path fill-rule="evenodd" clip-rule="evenodd" d="M3 0.998138C1.34315 0.998138 0 2.34129 0 3.99814V37.0845C0 38.7413 1.34314 40.0845 3 40.0845H8.54824C10.2051 40.0845 11.5482 38.7413 11.5482 37.0845V3.99814C11.5482 2.34128 10.2051 0.998138 8.54824 0.998138H3ZM3.66498 6.32809C3.11269 6.32809 2.66498 6.7758 2.66498 7.32809V8.88139C2.66498 9.43368 3.11269 9.88139 3.66498 9.88139H7.88326C8.43554 9.88139 8.88326 9.43368 8.88326 8.88139V7.32809C8.88326 6.7758 8.43554 6.32809 7.88326 6.32809H3.66498Z"></path>
<path fill-rule="evenodd" clip-rule="evenodd" d="M16.3249 0.998138C14.668 0.998138 13.3249 2.34129 13.3249 3.99814V37.0845C13.3249 38.7413 14.668 40.0845 16.3249 40.0845H21.8731C23.53 40.0845 24.8731 38.7413 24.8731 37.0845V3.99814C24.8731 2.34128 23.53 0.998138 21.8731 0.998138H16.3249ZM16.9899 6.32809C16.4376 6.32809 15.9899 6.7758 15.9899 7.32809V8.88139C15.9899 9.43368 16.4376 9.88139 16.9899 9.88139H21.2081C21.7604 9.88139 22.2081 9.43368 22.2081 8.88139V7.32809C22.2081 6.7758 21.7604 6.32809 21.2081 6.32809H16.9899Z"></path>
<path fill-rule="evenodd" clip-rule="evenodd" d="M27.7215 2.44849C26.1341 2.92307 25.232 4.59466 25.7065 6.18209L35.1835 37.8821C35.6581 39.4696 37.3297 40.3717 38.9171 39.8971L44.2329 38.3079C45.8203 37.8334 46.7225 36.1618 46.2479 34.5743L36.7709 2.8743C36.2963 1.28687 34.6247 0.38472 33.0373 0.859296L27.7215 2.44849ZM29.8853 7.36466C29.3562 7.52285 29.0554 8.08004 29.2136 8.60919L29.6585 10.0974C29.8167 10.6266 30.3739 10.9273 30.9031 10.7691L34.9446 9.56083C35.4738 9.40264 35.7745 8.84544 35.6163 8.3163L35.1714 6.82808C35.0132 6.29893 34.456 5.99822 33.9268 6.15641L29.8853 7.36466Z"></path>
</svg>