<svg id="Group_18729" data-name="Group 18729" xmlns="http://www.w3.org/2000/svg" width="116.119" height="116.119" viewBox="0 0 116.119 116.119">
  <ellipse id="Ellipse_176" data-name="Ellipse 176" cx="58.06" cy="58.06" rx="58.06" ry="58.06" transform="translate(0)" fill="#00e785"/>
  <g id="_990e48a14dc705285cb746ce68fb564e" data-name="990e48a14dc705285cb746ce68fb564e" transform="translate(30.706 30.698)">
    <path id="Path_51336" data-name="Path 51336" d="M9.942,2A7.969,7.969,0,0,0,2,9.942V49.651a7.969,7.969,0,0,0,7.942,7.942H29.8a1.985,1.985,0,0,0,0-3.971H9.942a3.919,3.919,0,0,1-3.971-3.971V9.942A3.919,3.919,0,0,1,9.942,5.971h27.8a3.919,3.919,0,0,1,3.971,3.971v3.971a1.985,1.985,0,1,0,3.971,0V9.942A7.969,7.969,0,0,0,37.738,2Z" transform="translate(-2 -2)" fill="#fff"/>
    <path id="Path_51337" data-name="Path 51337" d="M69.9,90a13.882,13.882,0,0,0-7.919,25.3v12.429a1.986,1.986,0,0,0,3.091,1.648l4.828-3.23,4.828,3.23a1.986,1.986,0,0,0,3.091-1.648V115.3A13.882,13.882,0,0,0,69.9,90Zm0,3.971a9.927,9.927,0,1,1-9.927,9.927A9.9,9.9,0,0,1,69.9,93.971Zm-3.948,23.244a13.686,13.686,0,0,0,7.9,0v6.794L71,122.1a1.986,1.986,0,0,0-2.21,0l-2.842,1.9Z" transform="translate(-28.204 -74.116)" fill="#fff"/>
    <path id="Path_51338" data-name="Path 51338" d="M8.985,7a1.985,1.985,0,1,0,0,3.971h5.956a1.985,1.985,0,0,0,0-3.971Zm0,7.942a1.985,1.985,0,1,0,0,3.971H20.9a1.985,1.985,0,1,0,0-3.971Zm0,7.942a1.985,1.985,0,1,0,0,3.971h5.956a1.985,1.985,0,1,0,0-3.971Z" transform="translate(2.927 2.927)" fill="#fff"/>
  </g>
</svg>
