<svg xmlns="http://www.w3.org/2000/svg" width="135" height="135" viewBox="0 0 135 135">
  <g id="Group_18729" data-name="Group 18729" transform="translate(-875.5 -1198.509)">
    <circle id="Ellipse_176" data-name="Ellipse 176" cx="67.5" cy="67.5" r="67.5" transform="translate(875.5 1198.509)" fill="#4fc3ff"/>
    <g id="_990e48a14dc705285cb746ce68fb564e" data-name="990e48a14dc705285cb746ce68fb564e" transform="translate(911.199 1234.199)">
      <path id="Path_51336" data-name="Path 51336" d="M11.233,2A9.264,9.264,0,0,0,2,11.233V57.4a9.264,9.264,0,0,0,9.233,9.233H34.316a2.308,2.308,0,0,0,0-4.617H11.233A4.557,4.557,0,0,1,6.617,57.4V11.233a4.557,4.557,0,0,1,4.617-4.617H43.549a4.557,4.557,0,0,1,4.617,4.617V15.85a2.308,2.308,0,1,0,4.617,0V11.233A9.264,9.264,0,0,0,43.549,2Z" transform="translate(-2 -2)" fill="#fff"/>
      <path id="Path_51337" data-name="Path 51337" d="M72.158,90a16.139,16.139,0,0,0-9.206,29.408v14.449a2.309,2.309,0,0,0,3.593,1.916l5.613-3.756,5.613,3.756a2.309,2.309,0,0,0,3.593-1.916V119.408A16.139,16.139,0,0,0,72.158,90Zm0,4.617a11.541,11.541,0,1,1-11.541,11.541A11.507,11.507,0,0,1,72.158,94.617Zm-4.59,27.023a15.912,15.912,0,0,0,9.179,0v7.9l-3.3-2.214a2.309,2.309,0,0,0-2.57,0l-3.3,2.214Z" transform="translate(-23.684 -71.534)" fill="#fff"/>
      <path id="Path_51338" data-name="Path 51338" d="M9.308,7a2.308,2.308,0,1,0,0,4.617h6.925a2.308,2.308,0,0,0,0-4.617Zm0,9.233a2.308,2.308,0,1,0,0,4.617h13.85a2.308,2.308,0,1,0,0-4.617Zm0,9.233a2.308,2.308,0,1,0,0,4.617h6.925a2.308,2.308,0,0,0,0-4.617Z" transform="translate(4.541 4.541)" fill="#fff"/>
    </g>
  </g>
</svg>
