<svg xmlns="http://www.w3.org/2000/svg" width="31.599" height="31.599" viewBox="0 0 31.599 31.599">
  <path id="_5e94a90cc30706fa992f8ced1c38048b" data-name="5e94a90cc30706fa992f8ced1c38048b" d="M16.07.264a15.8,15.8,0,1,0,15.792,15.8A15.826,15.826,0,0,0,16.07.264Zm0,2.872A12.931,12.931,0,1,1,3.135,16.059,12.9,12.9,0,0,1,16.07,3.136Zm-.023,2.852a1.436,1.436,0,0,0-1.422,1.465v8.607a1.436,1.436,0,0,0,.426,1.015L20.8,22.821a1.436,1.436,0,1,0,2.025-2.036l-5.32-5.32V7.452a1.436,1.436,0,0,0-1.453-1.465Z" transform="translate(-0.264 -0.264)" fill-rule="evenodd"/>
</svg>
