<svg xmlns="http://www.w3.org/2000/svg" width="135" height="135" viewBox="0 0 135 135">
  <g id="Group_18729" data-name="Group 18729" transform="translate(-875.5 -1198.509)">
    <circle id="Ellipse_176" data-name="Ellipse 176" cx="67.5" cy="67.5" r="67.5" transform="translate(875.5 1198.509)" fill="#4fc3ff"/>
    <g id="e1356327efabcd0660ae485e3a02aed7" transform="translate(901.283 1224.292)">
      <path id="Path_51374" data-name="Path 51374" d="M77.465,32.547A14.94,14.94,0,0,1,73.7,28.472a15.482,15.482,0,0,1-.279-5.819c.222-3.635.475-7.754-2.206-10.429s-6.792-2.43-10.429-2.2a15.49,15.49,0,0,1-5.822-.282,14.94,14.94,0,0,1-4.075-3.768C48.438,3.173,45.664,0,41.717,0S35,3.173,32.547,5.968a14.94,14.94,0,0,1-4.075,3.768,15.448,15.448,0,0,1-5.822.279C19.023,9.79,14.9,9.54,12.22,12.22s-2.427,6.795-2.2,10.429a15.435,15.435,0,0,1-.282,5.822,14.94,14.94,0,0,1-3.768,4.075C3.173,35,0,37.769,0,41.717s3.173,6.722,5.968,9.17a14.94,14.94,0,0,1,3.768,4.075,15.493,15.493,0,0,1,.279,5.822c-.222,3.632-.475,7.752,2.206,10.429s6.779,2.43,10.429,2.2a15.435,15.435,0,0,1,5.822.282,14.94,14.94,0,0,1,4.075,3.768c2.448,2.8,5.222,5.968,9.17,5.968s6.722-3.173,9.17-5.968A14.94,14.94,0,0,1,54.962,73.7a15.422,15.422,0,0,1,5.819-.279c3.629.224,7.752.477,10.429-2.206s2.427-6.795,2.2-10.429a15.435,15.435,0,0,1,.282-5.822,14.94,14.94,0,0,1,3.768-4.075c2.8-2.448,5.971-5.222,5.971-9.17S80.261,35,77.465,32.547ZM74.032,46.963a17.847,17.847,0,0,0-5.152,6,18.582,18.582,0,0,0-.667,8.14c.156,2.532.334,5.4-.686,6.422s-3.893.84-6.424.688a18.613,18.613,0,0,0-8.137.665,17.847,17.847,0,0,0-6,5.152c-1.809,2.065-3.671,4.193-5.251,4.193s-3.442-2.128-5.246-4.187a17.847,17.847,0,0,0-6-5.152,12.8,12.8,0,0,0-4.923-.8c-1.069,0-2.154.068-3.228.133-2.54.156-5.408.334-6.422-.686s-.845-3.89-.688-6.424a18.572,18.572,0,0,0-.665-8.137,17.847,17.847,0,0,0-5.152-6C7.342,45.158,5.215,43.3,5.215,41.717S7.342,38.275,9.4,36.471a17.847,17.847,0,0,0,5.152-6,18.582,18.582,0,0,0,.667-8.14c-.156-2.537-.334-5.41.683-6.43s3.89-.84,6.424-.688a18.454,18.454,0,0,0,8.137-.665,17.847,17.847,0,0,0,6-5.152c1.812-2.057,3.674-4.185,5.254-4.185S45.158,7.342,46.963,9.4a17.847,17.847,0,0,0,6,5.152,18.577,18.577,0,0,0,8.14.667c2.534-.159,5.4-.336,6.422.686s.845,3.89.688,6.424a18.572,18.572,0,0,0,.665,8.137,17.847,17.847,0,0,0,5.152,6c2.065,1.809,4.193,3.671,4.193,5.251S76.091,45.158,74.032,46.963Z" fill="#fff"/>
      <path id="Path_51375" data-name="Path 51375" d="M15.119,33.442l-2.362,1.1L11.644,32.18l2.365-1.1A2.608,2.608,0,1,0,11.8,26.353L7.076,28.559a2.607,2.607,0,0,0-1.259,3.465l3.309,7.094,3.3,7.081a2.654,2.654,0,0,0,3.142,1.377A2.607,2.607,0,0,0,17.155,44L14.95,39.269l2.365-1.1a2.607,2.607,0,1,0-2.206-4.725Zm19.941.613-4.68-2.834a6.5,6.5,0,0,0-7.929-9.811L18.9,23.06a2.607,2.607,0,0,0-1.262,3.468L24.252,40.7a2.657,2.657,0,0,0,3.207,1.361,2.628,2.628,0,0,0,1.52-3.567L27.66,35.653l4.691,2.868A2.589,2.589,0,0,0,33.7,38.9a2.631,2.631,0,0,0,1.358-4.847Zm-9.412-7.973a1.3,1.3,0,0,1,.107,2.4l-1.184.553-1.1-2.362,1.186-.553A1.283,1.283,0,0,1,25.647,26.082ZM44.42,28.41l-2.365,1.1-1.1-2.365,2.365-1.1a2.613,2.613,0,1,0-2.211-4.735l-2.362,1.1-1.1-2.365,2.362-1.1a2.607,2.607,0,0,0-2.2-4.724l-4.727,2.2a2.607,2.607,0,0,0-1.259,3.465l6.615,14.2A2.607,2.607,0,0,0,41.9,35.348l4.727-2.2a2.611,2.611,0,0,0-2.2-4.735ZM56.228,22.9,53.866,24l-1.1-2.365,2.365-1.1a2.608,2.608,0,0,0-2.206-4.727l-2.362,1.1-1.1-2.365,2.365-1.1a2.608,2.608,0,0,0-2.206-4.727l-4.727,2.2A2.607,2.607,0,0,0,43.63,14.39l3.311,7.1,3.3,7.079a2.607,2.607,0,0,0,3.465,1.259l4.727-2.206A2.607,2.607,0,1,0,56.228,22.9Z" transform="translate(8.954 13.625)" fill="#fff"/>
    </g>
  </g>
</svg>
