<svg id="Group_18729" data-name="Group 18729" xmlns="http://www.w3.org/2000/svg" width="116.119" height="116.119" viewBox="0 0 116.119 116.119">
  <ellipse id="Ellipse_176" data-name="Ellipse 176" cx="58.06" cy="58.06" rx="58.06" ry="58.06" transform="translate(0)" fill="#00e785"/>
  <g id="e1356327efabcd0660ae485e3a02aed7" transform="translate(22.177 22.177)">
    <path id="Path_51374" data-name="Path 51374" d="M66.631,27.995a12.85,12.85,0,0,1-3.241-3.505,13.317,13.317,0,0,1-.24-5.006c.191-3.126.408-6.67-1.9-8.971s-5.842-2.09-8.971-1.9a13.324,13.324,0,0,1-5.008-.242A12.85,12.85,0,0,1,43.77,5.136C41.664,2.729,39.278,0,35.882,0S30.1,2.729,27.995,5.133A12.85,12.85,0,0,1,24.49,8.374a13.288,13.288,0,0,1-5.008.24c-3.12-.193-6.665-.408-8.971,1.9s-2.088,5.844-1.9,8.971a13.276,13.276,0,0,1-.242,5.008,12.85,12.85,0,0,1-3.241,3.505C2.729,30.1,0,32.487,0,35.882s2.729,5.782,5.133,7.887a12.851,12.851,0,0,1,3.241,3.505,13.326,13.326,0,0,1,.24,5.008c-.191,3.124-.408,6.667,1.9,8.971s5.831,2.09,8.971,1.9a13.277,13.277,0,0,1,5.008.242,12.85,12.85,0,0,1,3.505,3.241c2.106,2.4,4.492,5.133,7.887,5.133s5.782-2.729,7.887-5.133a12.85,12.85,0,0,1,3.505-3.241,13.265,13.265,0,0,1,5.006-.24c3.122.193,6.667.41,8.971-1.9s2.088-5.844,1.9-8.971a13.276,13.276,0,0,1,.242-5.008,12.851,12.851,0,0,1,3.241-3.505c2.406-2.106,5.136-4.492,5.136-7.887S69.035,30.1,66.631,27.995Zm-2.954,12.4a15.351,15.351,0,0,0-4.431,5.158,15.984,15.984,0,0,0-.574,7c.135,2.178.287,4.649-.59,5.524s-3.348.722-5.526.592a16.01,16.01,0,0,0-7,.572A15.351,15.351,0,0,0,40.4,63.673c-1.556,1.776-3.158,3.606-4.517,3.606s-2.96-1.83-4.512-3.6a15.351,15.351,0,0,0-5.158-4.431,11.009,11.009,0,0,0-4.234-.688c-.919,0-1.852.058-2.776.114-2.184.135-4.651.287-5.524-.59s-.727-3.346-.592-5.526a15.974,15.974,0,0,0-.572-7A15.351,15.351,0,0,0,8.083,40.4c-1.767-1.556-3.6-3.158-3.6-4.517s1.83-2.96,3.6-4.512a15.351,15.351,0,0,0,4.431-5.158,15.983,15.983,0,0,0,.574-7c-.135-2.182-.287-4.653.588-5.53s3.346-.722,5.526-.592a15.873,15.873,0,0,0,7-.572,15.351,15.351,0,0,0,5.158-4.431c1.559-1.769,3.16-3.6,4.519-3.6s2.96,1.83,4.512,3.6a15.351,15.351,0,0,0,5.158,4.431,15.979,15.979,0,0,0,7,.574c2.18-.137,4.649-.289,5.524.59s.727,3.346.592,5.526a15.974,15.974,0,0,0,.572,7,15.351,15.351,0,0,0,4.431,5.158c1.776,1.556,3.606,3.158,3.606,4.517S65.449,38.843,63.678,40.395Z" fill="#fff"/>
    <path id="Path_51375" data-name="Path 51375" d="M13.784,29.95l-2.032.949-.958-2.034,2.034-.946a2.243,2.243,0,0,0-1.9-4.066l-4.066,1.9a2.243,2.243,0,0,0-1.083,2.98l2.846,6.1,2.841,6.091a2.283,2.283,0,0,0,2.7,1.184,2.243,2.243,0,0,0,1.364-3.079l-1.9-4.066,2.034-.949a2.243,2.243,0,1,0-1.9-4.064Zm17.152.527L26.91,28.04A5.589,5.589,0,0,0,20.09,19.6l-3.052,1.42A2.243,2.243,0,0,0,15.952,24L21.64,36.2A2.285,2.285,0,0,0,24.4,37.367,2.261,2.261,0,0,0,25.706,34.3l-1.135-2.447,4.035,2.467a2.227,2.227,0,0,0,1.162.327,2.263,2.263,0,0,0,1.168-4.169Zm-8.1-6.858a1.121,1.121,0,0,1,.092,2.065l-1.018.475-.946-2.032,1.02-.475A1.1,1.1,0,0,1,22.84,23.619Zm16.147,2-2.034.949L36,24.537l2.034-.946a2.247,2.247,0,1,0-1.9-4.073l-2.032.949-.946-2.034,2.032-.946a2.243,2.243,0,0,0-1.9-4.064l-4.066,1.893a2.243,2.243,0,0,0-1.083,2.98l5.69,12.211a2.243,2.243,0,0,0,2.98,1.083l4.066-1.9a2.246,2.246,0,0,0-1.9-4.073Zm10.157-4.739-2.032.949L46.163,19.8l2.034-.946a2.243,2.243,0,1,0-1.9-4.066l-2.032.949L43.319,13.7l2.034-.946a2.243,2.243,0,0,0-1.9-4.066l-4.066,1.9a2.243,2.243,0,0,0-1.083,2.98l2.848,6.109,2.839,6.089a2.243,2.243,0,0,0,2.98,1.083l4.066-1.9a2.243,2.243,0,1,0-1.9-4.064Z" transform="translate(6.923 10.534)" fill="#fff"/>
  </g>
</svg>
