<svg id="Group_18761" data-name="Group 18761" xmlns="http://www.w3.org/2000/svg" width="116.979" height="116.979" viewBox="0 0 116.979 116.979">
  <ellipse id="Ellipse_174" data-name="Ellipse 174" cx="58.49" cy="58.49" rx="58.49" ry="58.49" fill="#00e785"/>
  <g id="_2b647457f2e8d8263d6d8b039833cdd5" data-name="2b647457f2e8d8263d6d8b039833cdd5" transform="translate(27.667 33.171)">
    <path id="Path_51330" data-name="Path 51330" d="M56.838,59.637H14.094A10.105,10.105,0,0,1,4,49.542V19.094A10.105,10.105,0,0,1,14.094,9H55.55A10.105,10.105,0,0,1,65.645,19.094V49.729a2.2,2.2,0,0,1-4.4,0V19.094A5.7,5.7,0,0,0,55.55,13.4H14.094A5.7,5.7,0,0,0,8.4,19.094V49.542a5.7,5.7,0,0,0,5.691,5.691H56.838a2.2,2.2,0,1,1,0,4.4Z" transform="translate(-4 -9)" fill="#fff"/>
    <path id="Path_51331" data-name="Path 51331" d="M27.722,45.517A4.766,4.766,0,0,1,25.4,44.9,4.656,4.656,0,0,1,23,40.839V25.483a4.722,4.722,0,0,1,7.155-4.051l12.758,7.706a4.733,4.733,0,0,1,0,8.1L30.155,44.945a4.656,4.656,0,0,1-2.433.572Zm0-20.365a.3.3,0,0,0-.154,0,.308.308,0,0,0-.165.286v15.4a.319.319,0,0,0,.484.275l12.758-7.706a.319.319,0,0,0,0-.55L27.888,25.208a.231.231,0,0,0-.165-.055Z" transform="translate(-2.085 -7.815)" fill="#fff"/>
    <path id="Path_51332" data-name="Path 51332" d="M13.2,30.008a2.2,2.2,0,0,1-2.2-2.2V21.2a2.2,2.2,0,1,1,4.4,0v6.6A2.2,2.2,0,0,1,13.2,30.008Z" transform="translate(-3.294 -7.992)" fill="#fff"/>
  </g>
</svg>
