<svg id="Group_18730" data-name="Group 18730" xmlns="http://www.w3.org/2000/svg" width="116.979" height="116.979" viewBox="0 0 116.979 116.979">
  <ellipse id="Ellipse_175" data-name="Ellipse 175" cx="58.49" cy="58.49" rx="58.49" ry="58.49" fill="#00e785"/>
  <path id="b22b1974a42a04a2b44d35e6f070b5c9" d="M35.022,56.913a6.567,6.567,0,1,0,6.567,6.567,6.567,6.567,0,0,0-6.567-6.567ZM31.56,11.079a1.14,1.14,0,0,0,.48,1.514,6.43,6.43,0,0,0,1.284.5,1.106,1.106,0,0,0,1.341-.8,1.129,1.129,0,0,0-.777-1.377,4.308,4.308,0,0,1-.855-.336,1.082,1.082,0,0,0-1.473.493Zm4.59-8.863A4.268,4.268,0,0,1,37,2.55a1.1,1.1,0,0,0,1.473-.494A1.14,1.14,0,0,0,38,.543a6.424,6.424,0,0,0-1.285-.5,1.092,1.092,0,0,0-1.34.8,1.13,1.13,0,0,0,.779,1.377Zm3.25,4.1a1.109,1.109,0,0,0,1.093,1.064,1.123,1.123,0,0,0,1.1-1.187A6.959,6.959,0,0,0,41.37,4.8a1.091,1.091,0,0,0-1.343-.793,1.129,1.129,0,0,0-.772,1.381,4.65,4.65,0,0,1,.145.93ZM37.41,10.35a1.145,1.145,0,0,0-.319,1.558,1.092,1.092,0,0,0,1.516.328,6.7,6.7,0,0,0,1.077-.9,1.14,1.14,0,0,0-.005-1.586,1.082,1.082,0,0,0-1.556.007,4.5,4.5,0,0,1-.712.595ZM31.144,3.7a1.085,1.085,0,0,0,.779-.318,4.446,4.446,0,0,1,.706-.59,1.145,1.145,0,0,0,.318-1.559A1.079,1.079,0,0,0,31.431.91a6.672,6.672,0,0,0-1.064.889,1.144,1.144,0,0,0,0,1.589,1.075,1.075,0,0,0,.773.315ZM29.73,9.16a1.131,1.131,0,0,0,1.059-1.418,4.657,4.657,0,0,1-.144-.93,1.1,1.1,0,1,0-2.189.12,6.961,6.961,0,0,0,.216,1.393A1.1,1.1,0,0,0,29.73,9.16Zm-16.6,25.864A6.567,6.567,0,1,0,6.567,41.59,6.567,6.567,0,0,0,13.133,35.024Zm48.309-6.51a6.44,6.44,0,0,0-1.253.584,1.168,1.168,0,0,0-.4,1.56,1.08,1.08,0,0,0,1.5.416,4.3,4.3,0,0,1,.835-.389,1.152,1.152,0,0,0,.7-1.439,1.085,1.085,0,0,0-1.38-.732Zm4.234,10.463a4.3,4.3,0,0,1-.833.39,1.152,1.152,0,0,0-.7,1.441,1.1,1.1,0,0,0,1.381.728,6.42,6.42,0,0,0,1.252-.587,1.169,1.169,0,0,0,.4-1.561,1.069,1.069,0,0,0-1.5-.412ZM61.3,38.99a4.418,4.418,0,0,1-.742-.56,1.064,1.064,0,0,0-1.545.09,1.177,1.177,0,0,0,.086,1.612,6.627,6.627,0,0,0,1.112.837,1.087,1.087,0,0,0,1.494-.422,1.168,1.168,0,0,0-.4-1.558Zm7.647-5.111a1.124,1.124,0,0,0-1.094,1.148,4.769,4.769,0,0,1-.093.941,1.142,1.142,0,0,0,.848,1.351,1.105,1.105,0,0,0,1.3-.884,7.241,7.241,0,0,0,.139-1.42,1.114,1.114,0,0,0-1.094-1.135Zm-11.9-.274a7.176,7.176,0,0,0-.142,1.421v.024a1.109,1.109,0,0,0,1.094,1.13A1.129,1.129,0,0,0,59.1,35.026a4.772,4.772,0,0,1,.095-.95,1.142,1.142,0,0,0-.845-1.353,1.1,1.1,0,0,0-1.3.881Zm8.608-2.537a4.488,4.488,0,0,1,.743.561,1.079,1.079,0,0,0,1.545-.089,1.176,1.176,0,0,0-.085-1.612,6.659,6.659,0,0,0-1.109-.838,1.069,1.069,0,0,0-1.5.418,1.169,1.169,0,0,0,.4,1.56ZM10.258,50.5A6.523,6.523,0,1,0,14.9,48.56,6.567,6.567,0,0,0,10.258,50.5Zm47.4-31.943a1.145,1.145,0,0,0-.319,1.558,1.091,1.091,0,0,0,1.516.328,6.7,6.7,0,0,0,1.077-.9,1.14,1.14,0,0,0-.005-1.586,1.082,1.082,0,0,0-1.556.007,4.5,4.5,0,0,1-.712.595ZM56.4,10.425a4.259,4.259,0,0,1,.854.334,1.091,1.091,0,0,0,1.473-.494,1.141,1.141,0,0,0-.482-1.514,6.432,6.432,0,0,0-1.285-.5,1.092,1.092,0,0,0-1.34.8A1.13,1.13,0,0,0,56.4,10.425Zm3.249,4.1a1.109,1.109,0,0,0,1.093,1.065,1.124,1.124,0,0,0,1.1-1.187,6.959,6.959,0,0,0-.218-1.394,1.091,1.091,0,0,0-1.343-.793A1.129,1.129,0,0,0,59.5,13.6a4.649,4.649,0,0,1,.144.93Zm-9.668,2.838a1.131,1.131,0,0,0,1.059-1.418,4.657,4.657,0,0,1-.144-.93,1.1,1.1,0,1,0-2.189.12,6.961,6.961,0,0,0,.216,1.394,1.1,1.1,0,0,0,1.058.834Zm1.83,1.92a1.14,1.14,0,0,0,.48,1.514,6.429,6.429,0,0,0,1.284.505,1.107,1.107,0,0,0,1.341-.8,1.129,1.129,0,0,0-.777-1.377,4.306,4.306,0,0,1-.855-.336,1.081,1.081,0,0,0-1.473.493Zm-.417-7.368a1.084,1.084,0,0,0,.78-.327,4.443,4.443,0,0,1,.706-.59,1.145,1.145,0,0,0,.317-1.558,1.078,1.078,0,0,0-1.516-.327,6.673,6.673,0,0,0-1.064.89,1.144,1.144,0,0,0,0,1.589,1.075,1.075,0,0,0,.773.323ZM14.9,21.466a6.561,6.561,0,1,0-4.643-1.921A6.561,6.561,0,0,0,14.9,21.466ZM50.5,50.5a6.634,6.634,0,0,0,0,9.286,6.567,6.567,0,1,0,0-9.287Zm-.7-8.767a1.1,1.1,0,0,0-1.494.4A14.115,14.115,0,0,1,28.97,47.344a14.279,14.279,0,0,1-5.181-19.435,14.069,14.069,0,0,1,20.949-4.1h-.413a1.094,1.094,0,0,0,0,2.189h3.283A1.094,1.094,0,0,0,48.7,24.9V21.617a1.094,1.094,0,0,0-2.189,0v.81a16.386,16.386,0,1,0-6.256,28.456A16.242,16.242,0,0,0,50.2,43.229a1.094,1.094,0,0,0-.4-1.494Z" transform="translate(23.467 23.457)" fill="#fff"/>
</svg>
