<svg xmlns="http://www.w3.org/2000/svg" width="136" height="136" viewBox="0 0 136 136">
  <g id="Group_18761" data-name="Group 18761" transform="translate(-248 -967.991)">
    <circle id="Ellipse_174" data-name="Ellipse 174" cx="68" cy="68" r="68" transform="translate(248 967.991)" fill="#4fc3ff"/>
    <g id="_2b647457f2e8d8263d6d8b039833cdd5" data-name="2b647457f2e8d8263d6d8b039833cdd5" transform="translate(276.166 997.556)">
      <path id="Path_51330" data-name="Path 51330" d="M65.43,67.87H15.736A11.748,11.748,0,0,1,4,56.134v-35.4A11.748,11.748,0,0,1,15.736,9h48.2A11.748,11.748,0,0,1,75.668,20.736V56.352a2.56,2.56,0,0,1-5.119,0V20.736a6.629,6.629,0,0,0-6.616-6.616h-48.2a6.629,6.629,0,0,0-6.616,6.616v35.4a6.629,6.629,0,0,0,6.616,6.616H65.43a2.56,2.56,0,1,1,0,5.119Z" fill="#fff"/>
      <path id="Path_51331" data-name="Path 51331" d="M28.49,49.543a5.541,5.541,0,0,1-2.7-.717A5.413,5.413,0,0,1,23,44.1V26.251a5.49,5.49,0,0,1,8.319-4.71L46.151,30.5a5.5,5.5,0,0,1,0,9.419L31.319,48.878a5.413,5.413,0,0,1-2.828.665Zm0-23.676a.346.346,0,0,0-.179,0,.358.358,0,0,0-.192.333V44.1a.371.371,0,0,0,.563.32l14.833-8.958a.371.371,0,0,0,0-.64L28.682,25.931a.269.269,0,0,0-.192-.064Z" transform="translate(5.316 3.289)" fill="#fff"/>
      <path id="Path_51332" data-name="Path 51332" d="M13.56,31.8A2.56,2.56,0,0,1,11,29.238V21.56a2.56,2.56,0,1,1,5.119,0v7.679A2.56,2.56,0,0,1,13.56,31.8Z" transform="translate(1.958 2.798)" fill="#fff"/>
    </g>
  </g>
</svg>
