<svg xmlns="http://www.w3.org/2000/svg" width="136" height="136" viewBox="0 0 136 136">
  <g id="Group_18728" data-name="Group 18728" transform="translate(-876.009 -1199.018)">
    <circle id="Ellipse_176" data-name="Ellipse 176" cx="68" cy="68" r="68" transform="translate(876.009 1199.018)" fill="#4fc3ff"/>
    <g id="d3a4ac20bd2590e74148d3f66b74bb47" transform="translate(912.323 1234.47)">
      <path id="Path_51333" data-name="Path 51333" d="M16.2,24.4,7.426,29.019,9.1,19.246,2,12.323l9.814-1.428L16.2,2l4.388,8.893L30.4,12.323l-7.1,6.92,1.679,9.776Zm0,38.061L7.426,67.08,9.1,57.307,2,50.384l9.814-1.425,4.388-8.9,4.388,8.9L30.4,50.384,23.3,57.3l1.682,9.776Z" transform="translate(-2 -2.002)" fill="none" stroke="#fff" stroke-linejoin="round" stroke-width="5" fill-rule="evenodd"/>
      <path id="Path_51334" data-name="Path 51334" d="M13.655,11.056l9.225,7.992L37.031,3.633" transform="translate(26.269 1.954)" fill="none" stroke="#fff" stroke-linecap="round" stroke-linejoin="round" stroke-width="5" fill-rule="evenodd"/>
      <path id="Path_51335" data-name="Path 51335" d="M13.746,18.222H36.882" transform="translate(26.49 37.34)" fill="none" stroke="#fff" stroke-linecap="round" stroke-width="5" fill-rule="evenodd"/>
    </g>
  </g>
</svg>
