<svg xmlns="http://www.w3.org/2000/svg" width="136" height="136" viewBox="0 0 136 136">
  <g id="Group_18730" data-name="Group 18730" transform="translate(-558 -1199.009)">
    <circle id="Ellipse_175" data-name="Ellipse 175" cx="68" cy="68" r="68" transform="translate(558 1199.009)" fill="#4fc3ff"/>
    <path id="b22b1974a42a04a2b44d35e6f070b5c9" d="M40.717,66.166A7.634,7.634,0,1,0,48.351,73.8a7.634,7.634,0,0,0-7.634-7.634ZM36.692,12.88a1.326,1.326,0,0,0,.558,1.76,7.475,7.475,0,0,0,1.493.587A1.286,1.286,0,0,0,40.3,14.3a1.312,1.312,0,0,0-.9-1.6,5.009,5.009,0,0,1-.994-.391,1.258,1.258,0,0,0-1.713.573Zm5.336-10.3a4.962,4.962,0,0,1,.992.388,1.281,1.281,0,0,0,1.713-.574A1.326,1.326,0,0,0,44.173.63,7.468,7.468,0,0,0,42.68.045a1.269,1.269,0,0,0-1.558.931,1.314,1.314,0,0,0,.906,1.6Zm3.778,4.772a1.29,1.29,0,0,0,1.27,1.237A1.306,1.306,0,0,0,48.35,7.205a8.09,8.09,0,0,0-.253-1.62,1.269,1.269,0,0,0-1.562-.922,1.313,1.313,0,0,0-.9,1.605,5.407,5.407,0,0,1,.169,1.082Zm-2.313,4.684a1.331,1.331,0,0,0-.371,1.811,1.269,1.269,0,0,0,1.762.381,7.788,7.788,0,0,0,1.253-1.048,1.326,1.326,0,0,0-.006-1.844,1.258,1.258,0,0,0-1.809.008,5.234,5.234,0,0,1-.828.692ZM36.208,4.3a1.262,1.262,0,0,0,.906-.37,5.169,5.169,0,0,1,.821-.686,1.331,1.331,0,0,0,.37-1.813,1.254,1.254,0,0,0-1.762-.379A7.757,7.757,0,0,0,35.3,2.092a1.33,1.33,0,0,0,0,1.848,1.25,1.25,0,0,0,.9.366Zm-1.643,6.344A1.315,1.315,0,0,0,35.8,9a5.414,5.414,0,0,1-.167-1.081,1.274,1.274,0,1,0-2.544.14,8.093,8.093,0,0,0,.251,1.62A1.281,1.281,0,0,0,34.564,10.649Zm-19.3,30.069a7.634,7.634,0,1,0-7.634,7.634A7.634,7.634,0,0,0,15.269,40.718Zm56.164-7.569a7.487,7.487,0,0,0-1.456.679,1.358,1.358,0,0,0-.463,1.813,1.256,1.256,0,0,0,1.738.484,5,5,0,0,1,.97-.452A1.34,1.34,0,0,0,73.037,34a1.261,1.261,0,0,0-1.6-.851Zm4.923,12.164a5,5,0,0,1-.969.454,1.34,1.34,0,0,0-.812,1.675,1.28,1.28,0,0,0,1.606.846,7.464,7.464,0,0,0,1.456-.682,1.359,1.359,0,0,0,.459-1.814,1.243,1.243,0,0,0-1.74-.479Zm-5.085.016a5.137,5.137,0,0,1-.863-.651,1.237,1.237,0,0,0-1.8.1,1.368,1.368,0,0,0,.1,1.874A7.705,7.705,0,0,0,70,47.631a1.264,1.264,0,0,0,1.737-.491,1.358,1.358,0,0,0-.471-1.811Zm8.891-5.942a1.307,1.307,0,0,0-1.272,1.334,5.544,5.544,0,0,1-.108,1.094,1.327,1.327,0,0,0,.985,1.57,1.285,1.285,0,0,0,1.506-1.027,8.418,8.418,0,0,0,.162-1.65,1.295,1.295,0,0,0-1.272-1.32ZM66.33,39.069a8.343,8.343,0,0,0-.165,1.652v.027a1.289,1.289,0,0,0,1.272,1.314,1.312,1.312,0,0,0,1.272-1.341,5.548,5.548,0,0,1,.11-1.1,1.328,1.328,0,0,0-.982-1.573,1.276,1.276,0,0,0-1.508,1.024Zm10.007-2.95a5.217,5.217,0,0,1,.864.653,1.254,1.254,0,0,0,1.8-.1,1.367,1.367,0,0,0-.1-1.874,7.742,7.742,0,0,0-1.289-.975,1.243,1.243,0,0,0-1.738.485,1.359,1.359,0,0,0,.466,1.813ZM11.926,58.712a7.584,7.584,0,1,0,5.4-2.257,7.634,7.634,0,0,0-5.4,2.257ZM67.032,21.575a1.331,1.331,0,0,0-.371,1.811,1.268,1.268,0,0,0,1.763.382,7.787,7.787,0,0,0,1.252-1.048,1.326,1.326,0,0,0-.006-1.844,1.258,1.258,0,0,0-1.809.008,5.236,5.236,0,0,1-.828.692Zm-1.465-9.456a4.951,4.951,0,0,1,.992.388,1.269,1.269,0,0,0,1.713-.574,1.326,1.326,0,0,0-.56-1.76,7.478,7.478,0,0,0-1.494-.585,1.269,1.269,0,0,0-1.557.931A1.314,1.314,0,0,0,65.567,12.119Zm3.778,4.772a1.29,1.29,0,0,0,1.271,1.238,1.307,1.307,0,0,0,1.273-1.381,8.089,8.089,0,0,0-.253-1.621,1.269,1.269,0,0,0-1.562-.922,1.313,1.313,0,0,0-.9,1.605,5.4,5.4,0,0,1,.168,1.082Zm-11.24,3.3a1.314,1.314,0,0,0,1.231-1.648,5.413,5.413,0,0,1-.167-1.082,1.274,1.274,0,1,0-2.545.14,8.093,8.093,0,0,0,.251,1.62,1.281,1.281,0,0,0,1.23.97Zm2.127,2.232a1.326,1.326,0,0,0,.558,1.76,7.474,7.474,0,0,0,1.493.587,1.287,1.287,0,0,0,1.559-.929,1.312,1.312,0,0,0-.9-1.6,5.006,5.006,0,0,1-.994-.391,1.257,1.257,0,0,0-1.712.573Zm-.485-8.566a1.26,1.26,0,0,0,.907-.38,5.165,5.165,0,0,1,.821-.686,1.331,1.331,0,0,0,.369-1.812,1.253,1.253,0,0,0-1.762-.38,7.757,7.757,0,0,0-1.237,1.034,1.33,1.33,0,0,0,0,1.847,1.249,1.249,0,0,0,.9.375Zm-42.423,11.1a7.628,7.628,0,1,0-5.4-2.233,7.628,7.628,0,0,0,5.4,2.233ZM58.711,58.713a7.713,7.713,0,0,0,0,10.8,7.634,7.634,0,1,0,0-10.8ZM57.892,48.52a1.273,1.273,0,0,0-1.737.469,16.41,16.41,0,0,1-22.474,6.053,16.6,16.6,0,0,1-6.024-22.6,16.357,16.357,0,0,1,24.356-4.771h-.48a1.272,1.272,0,0,0,0,2.545H55.35a1.272,1.272,0,0,0,1.272-1.272V25.131a1.272,1.272,0,0,0-2.545,0v.942A19.05,19.05,0,1,0,46.8,59.156a18.883,18.883,0,0,0,11.558-8.9,1.272,1.272,0,0,0-.47-1.737Z" transform="translate(585.283 1226.281)" fill="#fff"/>
  </g>
</svg>
