<svg id="Group_18728" data-name="Group 18728" xmlns="http://www.w3.org/2000/svg" width="116.979" height="116.979" viewBox="0 0 116.979 116.979">
  <ellipse id="Ellipse_176" data-name="Ellipse 176" cx="58.49" cy="58.49" rx="58.49" ry="58.49" fill="#00e785"/>
  <g id="d3a4ac20bd2590e74148d3f66b74bb47" transform="translate(31.235 30.494)">
    <path id="Path_51333" data-name="Path 51333" d="M14.216,21.272,6.667,25.241l1.444-8.406L2,10.88l8.442-1.229L14.216,2,17.99,9.651l8.442,1.229-6.108,5.952,1.444,8.409Zm0,32.738L6.667,57.978l1.444-8.406L2,43.617l8.442-1.226,3.774-7.652,3.774,7.652,8.442,1.226-6.108,5.952,1.447,8.409Z" transform="translate(-2 -2.002)" fill="none" stroke="#fff" stroke-linejoin="round" stroke-width="5" fill-rule="evenodd"/>
    <path id="Path_51334" data-name="Path 51334" d="M13.655,10.018l7.935,6.874L33.761,3.633" transform="translate(20.686 1.173)" fill="none" stroke="#fff" stroke-linecap="round" stroke-linejoin="round" stroke-width="5" fill-rule="evenodd"/>
    <path id="Path_51335" data-name="Path 51335" d="M13.746,18.222h19.9" transform="translate(20.863 29.569)" fill="none" stroke="#fff" stroke-linecap="round" stroke-width="5" fill-rule="evenodd"/>
  </g>
</svg>
