<svg xmlns="http://www.w3.org/2000/svg" width="34.895" height="28.075" viewBox="0 0 34.895 28.075">
  <g id="_4ca472a7403ad7fb703f985124805b80" data-name="4ca472a7403ad7fb703f985124805b80" transform="translate(-2.17 -8)">
    <path id="Path_51484" data-name="Path 51484" d="M31.216,36.075H8.019A5.849,5.849,0,0,1,2.17,30.226V13.849A5.849,5.849,0,0,1,8.019,8h23.2a5.849,5.849,0,0,1,5.849,5.849V30.226A5.849,5.849,0,0,1,31.216,36.075ZM8.019,10.34A3.509,3.509,0,0,0,4.51,13.849V30.226a3.509,3.509,0,0,0,3.509,3.509h23.2a3.509,3.509,0,0,0,3.509-3.509V13.849a3.509,3.509,0,0,0-3.509-3.509Z" transform="translate(0 0)" fill="#222"/>
    <path id="Path_51485" data-name="Path 51485" d="M23.05,34.119a1.17,1.17,0,0,1-1.17-1.17V20.7a1.17,1.17,0,0,1,1.72-1.029L35.022,25.8a1.17,1.17,0,0,1,0,2.059L23.6,33.979a1.17,1.17,0,0,1-.55.14Zm1.17-11.464V31l7.773-4.17Z" transform="translate(-8.182 -4.788)" fill="#222"/>
  </g>
</svg>
