<svg xmlns="http://www.w3.org/2000/svg" fill="none" viewBox="7.598000000000001 3.146341463414634 254.926 39.06707317073171" style="max-height: 500px" width="254.926" height="39.06707317073171">
<mask height="40" width="40" y="3" x="7" maskUnits="userSpaceOnUse" style="mask-type:luminance" id="mask0_122_3">
<path fill="white" d="M46.54 3.2H7.72998V42.01H46.54V3.2Z"/>
</mask>
<g mask="url(#mask0_122_3)">
<path fill="url(#paint0_linear_122_3)" d="M7.72998 42.01C29.16 42.01 46.54 24.63 46.54 3.2H7.72998V42.01Z"/>
</g>
<mask height="15" width="15" y="28" x="32" maskUnits="userSpaceOnUse" style="mask-type:luminance" id="mask1_122_3">
<path fill="white" d="M46.71 28.17H32.71V42.14H46.71V28.17Z"/>
</mask>
<g mask="url(#mask1_122_3)">
<path fill="url(#paint1_linear_122_3)" d="M46.55 28.17C38.9 28.17 32.71 34.37 32.71 42.01H46.55V28.17Z"/>
</g>
<path fill="black" d="M90.75 38.81H84.83L82.41 32.89H68.31L65.89 38.81H59.97L72.7 8.17999H78.01L90.74 38.81H90.75ZM75.17 16.15L70.23 28.21H80.5L75.54 16.15L75.41 15.42H75.33L75.16 16.15H75.17Z"/>
<path fill="black" d="M111 38.81H91.58V8.21001H97.18V33.79H110.99V38.81H111Z"/>
<path fill="black" d="M124.53 38.81H118.95V13.21H109.82V8.21001H133.63V13.21H124.53V38.81Z"/>
<path fill="black" d="M156.37 38.81H135.2V8.21001H156.18V13.23H140.8V20.9H154.07V25.63H140.8V33.8H156.36V38.82L156.37 38.81Z"/>
<path fill="black" d="M164.04 38.81H158.44V8.21001H171.65C173.19 8.21001 174.61 8.45001 175.9 8.92001C177.2 9.39001 178.33 10.08 179.28 10.96C180.22 11.85 180.96 12.91 181.49 14.13C182.02 15.35 182.28 16.71 182.28 18.19C182.28 19.67 182.01 20.93 181.49 22.13C180.97 23.31 180.25 24.33 179.32 25.17C178.39 26.02 177.3 26.66 176.05 27.09L182.97 38.82H176.53L170.49 27.94C170.29 27.96 170.1 27.96 169.91 27.96H164.06V38.81H164.04ZM164.04 13.21V23.25H171.44C172.44 23.24 173.33 23.02 174.11 22.58C174.9 22.15 175.53 21.56 175.99 20.81C176.45 20.05 176.68 19.17 176.68 18.18C176.68 17.25 176.44 16.41 175.97 15.66C175.51 14.91 174.89 14.32 174.09 13.87C173.3 13.43 172.41 13.2 171.42 13.2H164.04V13.21Z"/>
<path fill="black" d="M205.7 38.81H184.53V8.21001H205.51V13.23H190.13V20.9H203.4V25.63H190.13V33.8H205.69V38.82L205.7 38.81Z"/>
<path fill="black" d="M213.37 38.81H207.77V8.21001H220.98C222.52 8.21001 223.94 8.45001 225.23 8.92001C226.53 9.39001 227.66 10.08 228.61 10.96C229.55 11.85 230.29 12.91 230.82 14.13C231.35 15.35 231.61 16.71 231.61 18.19C231.61 19.67 231.34 20.93 230.82 22.13C230.3 23.31 229.58 24.33 228.65 25.17C227.72 26.02 226.63 26.66 225.38 27.09L232.3 38.82H225.86L219.82 27.94C219.62 27.96 219.43 27.96 219.24 27.96H213.39V38.81H213.37ZM213.37 13.21V23.25H220.77C221.77 23.24 222.66 23.02 223.44 22.58C224.23 22.15 224.86 21.56 225.32 20.81C225.78 20.05 226.01 19.17 226.01 18.18C226.01 17.25 225.77 16.41 225.3 15.66C224.84 14.91 224.22 14.32 223.42 13.87C222.63 13.43 221.74 13.2 220.75 13.2H213.37V13.21Z"/>
<path fill="black" d="M261.2 38.81H255.28L252.86 32.89H238.76L236.34 38.81H230.42L243.15 8.17999H248.46L261.19 38.81H261.2ZM245.61 16.15L240.67 28.21H250.94L245.98 16.15L245.85 15.42H245.77L245.6 16.15H245.61Z"/>
<defs>
<linearGradient gradientUnits="userSpaceOnUse" y2="42.01" x2="27.135" y1="3.2" x1="27.135" id="paint0_linear_122_3">
<stop stop-color="#34E996"/>
<stop stop-color="#64B8FA" offset="1"/>
</linearGradient>
<linearGradient gradientUnits="userSpaceOnUse" y2="42.01" x2="39.63" y1="28.17" x1="39.63" id="paint1_linear_122_3">
<stop stop-color="#34E996"/>
<stop stop-color="#64B8FA" offset="1"/>
</linearGradient>
</defs>
</svg>